# xmcd
#
# Track frame offsets: 
#        150
#        56835
#        127015
#        137353
#        155917
#        165978
#        204837
#        241679
#
# Disc length: 3763 seconds
#
# Revision: 0
# Processed by: cddbd v1.5.2PL0 Copyright (c) Steve Scherf et al.
# Submitted via: ExactAudioCopy v0.95a5
#
DISCID=640eb108
DTITLE=р╕╠Чяв - р╕╠Чяв╧егыруйУ-CD2
DYEAR=2017
DGENRE=Folk
TTITLE0=╢С╨Згя
TTITLE1=╨ЗСуй╝╟кед
TTITLE2=╬ф©Я
TTITLE3=ЁЧ╦Х
TTITLE4=╩╙ЯЦрЩ
TTITLE5=╧б╧щсЖои
TTITLE6=нзр╧лД к©ор
TTITLE7=нзр╧лД  ╦жор
EXTD=
EXTT0=
EXTT1=
EXTT2=
EXTT3=
EXTT4=
EXTT5=
EXTT6=
EXTT7=
PLAYORDER=
